<svg width="512" height="512" viewBox="0 0 512 512" fill="none" xmlns="http://www.w3.org/2000/svg">
<g clip-path="url(#clip0_599_385)">
<path d="M211.801 318.915C204.995 318.915 198.86 318.646 193.396 318.109C187.933 317.572 182.335 316.452 176.603 314.75C170.961 313.138 166.259 310.944 162.497 308.168C158.736 305.481 155.691 301.764 153.362 297.017C151.034 292.27 149.914 286.673 150.004 280.224C149.735 274.851 149.556 269.432 149.466 263.969C149.377 258.505 149.332 254.207 149.332 251.072C149.332 247.848 149.287 244.668 149.197 241.534C149.197 238.309 149.063 235.891 148.794 234.279C148.526 232.667 148.168 231.1 147.72 229.577C147.272 227.965 146.511 226.845 145.436 226.218C144.451 225.502 143.286 224.92 141.943 224.472C140.6 223.935 138.808 223.532 136.569 223.263C135.495 223.084 134.241 222.905 132.808 222.726C131.375 222.546 130.166 222.412 129.18 222.322C128.285 222.143 127.344 221.964 126.359 221.785C125.464 221.516 124.792 221.158 124.344 220.71C123.896 220.263 123.672 219.68 123.672 218.964C123.672 214.844 123.538 208.799 123.269 200.828C123.001 192.857 122.866 186.632 122.866 182.154C122.866 176.064 124.031 172.481 126.359 171.407C129.225 171.407 131.733 171.272 133.882 171.004C136.032 170.735 138.316 170.242 140.734 169.526C143.152 168.809 145.033 167.6 146.376 165.899C147.809 164.197 148.66 162.092 148.929 159.584V120.894C148.929 114.893 149.556 109.519 150.81 104.773C152.063 99.9362 153.676 95.9507 155.646 92.816C157.616 89.5918 160.214 86.8154 163.438 84.4868C166.662 82.0686 169.797 80.2326 172.842 78.9787C175.887 77.7249 179.604 76.6949 183.992 75.8888C188.381 75.0828 192.232 74.5902 195.546 74.4111C198.86 74.1424 202.845 73.9633 207.502 73.8737H236.52L241.357 78.4414C241.357 83.4568 241.312 90.8009 241.222 100.474C241.133 110.146 241.088 117.49 241.088 122.506C240.551 125.372 238.849 126.805 235.983 126.805C234.998 126.805 233.52 126.76 231.55 126.67C229.579 126.581 228.191 126.536 227.385 126.536C223.265 126.536 220.175 127.432 218.115 129.223C216.145 130.925 215.115 134.328 215.025 139.433V171.138C215.025 182.512 207.681 191.289 192.993 197.469H197.561C204.188 200.514 208.622 204.903 210.861 210.635C213.1 216.367 214.219 224.875 214.219 236.16V240.996C214.219 242.16 214.175 243.773 214.085 245.832C213.995 247.892 213.951 249.505 213.951 250.669C213.951 254.341 214.085 257.162 214.354 259.132C214.712 261.013 215.473 262.804 216.638 264.506C217.802 266.118 219.548 267.238 221.877 267.865C224.295 268.402 227.564 268.671 231.684 268.671C236.341 268.671 239.028 269.656 239.745 271.626V290.972C239.745 308.794 238.491 318.109 235.983 318.915H211.801ZM267.419 314.079C267.509 310.944 267.598 306.555 267.688 300.913C267.867 295.271 268.001 290.121 268.091 285.464C268.18 280.806 268.225 276.373 268.225 272.164C268.225 269.566 269.569 268.133 272.255 267.865H279.779C284.346 267.865 287.839 266.924 290.257 265.043C292.765 263.073 294.019 259.356 294.019 253.893C294.019 253.087 293.974 250.49 293.885 246.101C293.795 241.713 293.75 238.041 293.75 235.085C294.198 222.636 295.945 213.814 298.99 208.62C302.035 203.335 307.901 199.439 316.589 196.932C307.991 194.424 302.214 190.797 299.258 186.05C296.303 181.303 294.825 173.466 294.825 162.54C294.736 160.928 294.736 158.689 294.825 155.823C295.004 152.957 295.094 151.076 295.094 150.18V139.97C295.094 134.507 293.795 130.835 291.198 128.954C288.69 126.984 283.63 125.999 276.017 125.999C273.599 125.999 271.852 125.82 270.778 125.461C269.793 125.014 269.3 124.118 269.3 122.774C269.3 120.177 269.345 116.147 269.434 110.684C269.524 105.22 269.569 101.19 269.569 98.5928C269.569 96.8015 269.479 95.279 269.3 94.0251V88.3827C269.3 81.576 270.196 77.4562 271.987 76.0232C275.569 76.3814 278.346 76.5606 280.316 76.5606C280.674 76.5606 281.212 76.5158 281.928 76.4262C282.734 76.3367 283.361 76.2919 283.809 76.2919C284.167 76.2919 285.152 76.3367 286.765 76.4262C288.377 76.5158 289.362 76.5606 289.72 76.5606C289.72 76.3814 290.257 76.2919 291.332 76.2919H301.005C301.363 76.2919 301.856 76.2919 302.483 76.2919C307.409 76.2919 311.17 76.3367 313.767 76.4262C316.454 76.5158 320.171 76.874 324.918 77.501C329.665 78.1279 333.381 79.0683 336.068 80.3222C338.755 81.576 341.845 83.5016 345.338 86.0989C348.831 88.6066 351.473 91.6965 353.264 95.3685C355.145 98.951 356.757 103.608 358.101 109.34C359.444 114.983 360.116 121.431 360.116 128.686V134.597C360.116 138 359.981 142.433 359.713 147.897C359.444 153.27 359.31 156.898 359.31 158.778C359.31 161.644 359.892 164.018 361.056 165.899C362.31 167.69 364.101 168.988 366.43 169.794C368.758 170.601 370.908 171.138 372.878 171.407C374.849 171.586 377.222 171.675 379.998 171.675C383.76 172.66 385.641 174.183 385.641 176.243C385.641 178.392 385.596 181.751 385.506 186.319C385.417 190.886 385.372 194.424 385.372 196.932C385.372 199.439 385.417 203.156 385.506 208.082C385.596 213.008 385.641 216.725 385.641 219.233C385.462 220.755 384.432 221.83 382.551 222.457C380.76 222.994 378.61 223.308 376.102 223.397C373.684 223.487 371.266 223.711 368.848 224.069C366.43 224.338 364.37 225.278 362.668 226.89C360.967 228.502 360.116 230.786 360.116 233.742C360.116 236.966 360.205 239.384 360.384 240.996V249.594C360.384 251.206 360.519 253.803 360.787 257.386C361.056 260.968 361.19 263.745 361.19 265.715C361.19 274.403 360.34 282.015 358.638 288.553C356.936 295.091 354.697 300.331 351.921 304.272C349.234 308.212 345.831 311.392 341.711 313.81C337.591 316.228 333.381 317.84 329.082 318.646C324.784 319.542 319.992 319.99 314.708 319.99H271.987L267.419 314.079Z" fill="white"/>
<rect x="178.619" y="347.577" width="153.33" height="40.1237" rx="20.0619" fill="white"/>
<rect x="211.577" y="412.062" width="87.4124" height="40.1237" rx="20.0619" fill="white"/>
</g>
<defs>
<clipPath id="clip0_599_385">
<rect width="512" height="512" fill="white"/>
</clipPath>
</defs>
</svg>
