<svg width="450" height="95" viewBox="0 0 450 95" fill="none" xmlns="http://www.w3.org/2000/svg">
<path d="M76.1286 22.8286C68.4143 22.8286 62.9714 24.8429 59.8 28.8714C56.7143 32.8143 55.1714 39.1143 55.1714 47.7714C55.1714 61.4 59.1571 68.2143 67.1286 68.2143C68.7571 68.2143 69.8286 68.1714 70.3429 68.0857C69.3143 68.0857 68.4571 66.2857 67.7714 62.6857C67.1714 59.0857 66.8714 55.3143 66.8714 51.3714C66.8714 47.4286 67.9429 44.9 70.0857 43.7857C72.2286 42.5857 75.1857 41.9857 78.9571 41.9857C82.8143 41.9857 85.4714 42.0286 86.9286 42.1143C88.4714 42.1143 90.1857 42.2857 92.0714 42.6286C94.0429 42.8857 95.5429 43.3143 96.5714 43.9143C98.9714 45.2857 100.171 47.3429 100.171 50.0857V68.8571C100.171 75.5429 98.9714 80.9 96.5714 84.9286C94.1714 88.8714 89.6714 91.1857 83.0714 91.8714C73.8143 92.8143 59.6714 93.2857 40.6429 93.2857C33.0143 93.2857 26.4571 92.0857 20.9714 89.6857C15.5714 87.2857 11.3714 83.9429 8.37143 79.6571C2.88571 71.6857 0.142857 61.5714 0.142857 49.3143C0.142857 36.9714 4.08571 26 11.9714 16.4C19.8571 6.8 30.3571 1.65714 43.4714 0.97143C52.4714 0.45714 58.9857 0.199996 63.0143 0.199996C77.6714 0.199996 88.0857 1.1 94.2571 2.9C98.4571 4.1 100.557 7.48571 100.557 13.0571C100.557 20.5143 98.3714 24.2429 94 24.2429C92.6286 24.1571 89.8857 23.9 85.7714 23.4714C81.6571 23.0429 78.4429 22.8286 76.1286 22.8286ZM169.582 32.9857L169.453 58.7C169.453 62.4714 170.01 65.3 171.125 67.1857C172.325 68.9857 174.768 69.8857 178.453 69.8857H210.982C214.925 69.9714 216.896 72.9714 216.896 78.8857C216.896 83.4286 216.339 86.7286 215.225 88.7857C214.11 90.8429 211.839 91.9143 208.41 92C196.325 92.3429 184.368 92.5143 172.539 92.5143C160.71 92.5143 145.625 92.4286 127.282 92.2571C124.196 92.2571 121.668 91.5286 119.696 90.0714C117.81 88.5286 116.739 86.4286 116.482 83.7714C115.796 76.3143 115.453 64.5714 115.453 48.5429C115.453 32.4286 115.625 21.5857 115.968 16.0143C116.396 10.3571 117.21 6.62857 118.41 4.82857C119.61 2.94285 121.968 2 125.482 2H159.939C163.539 2 165.896 2.94285 167.01 4.82857C168.21 6.71428 168.939 9.75714 169.196 13.9571C169.453 18.1571 169.582 24.5 169.582 32.9857ZM276.219 15.5L275.962 27.2V52.0143C275.962 55.6143 277.076 58.4 279.305 60.3714C281.533 62.3429 284.147 63.3286 287.147 63.3286C290.147 63.3286 292.719 62.3429 294.862 60.3714C297.09 58.4 298.205 55.6143 298.205 52.0143V13.7C298.205 9.67143 298.719 6.71428 299.747 4.82857C300.862 2.94285 303.219 2 306.819 2H318.647C321.39 2 323.276 2.81428 324.305 4.44285C326.276 7.35714 327.262 18.6286 327.262 38.2571C327.262 44.6857 327.176 49.6143 327.005 53.0429C326.747 59.9857 325.119 66.2 322.119 71.6857C319.205 77.0857 315.433 81.4143 310.805 84.6714C301.462 91.2714 290.876 94.5714 279.047 94.5714C263.447 94.5714 250.547 90.9286 240.347 83.6429C235.205 79.9571 231.133 75.0714 228.133 68.9857C225.219 62.8143 223.719 55.6571 223.633 47.5143C223.547 43.4857 223.505 37.5714 223.505 29.7714C223.505 21.8857 223.59 16.2286 223.762 12.8C224.019 9.28571 224.705 6.62857 225.819 4.82857C227.019 2.94285 229.376 2 232.89 2H267.219C270.647 2 272.919 2.9 274.033 4.7C275.49 7.01429 276.219 10.6143 276.219 15.5ZM427.26 2H441.017C443.932 2 445.946 2.47143 447.06 3.41429C448.26 4.35714 448.903 6.28571 448.989 9.19999C449.503 22.2286 449.76 36.2429 449.76 51.2429C449.76 66.2429 449.46 77.2143 448.86 84.1571C448.689 86.1286 447.917 87.9286 446.546 89.5571C445.26 91.1857 443.546 92 441.403 92H419.932C416.932 92 413.632 90.9286 410.032 88.7857C390.146 77.0429 377.632 69.8857 372.489 67.3143C371.46 66.8857 370.603 67.0571 369.917 67.8286C369.317 68.5143 369.017 69.8429 369.017 71.8143V86.0857C369.017 87.7143 368.417 89 367.217 89.9429C365.417 91.4 360.789 92.1286 353.332 92.1286C351.274 92.1286 349.26 92.0857 347.289 92C345.317 91.8286 343.689 90.9286 342.403 89.3C341.203 87.6714 340.56 85.9143 340.474 84.0286C340.217 73.7429 340.089 60.8429 340.089 45.3286C340.089 29.7286 340.132 19.5714 340.217 14.8571C340.303 10.1429 340.86 6.84285 341.889 4.95714C342.917 2.98571 344.889 2 347.803 2H361.946C364.86 2 367.86 2.81428 370.946 4.44285C397.517 18.2429 413.032 26.2571 417.489 28.4857C418.946 29.1714 420.103 29.2571 420.96 28.7429C421.817 28.2286 422.246 27.2857 422.246 25.9143V7.91428C422.246 6.2 422.674 4.78571 423.532 3.67143C424.474 2.55714 425.717 2 427.26 2Z" fill="#F4F4F4"/>
</svg>
