<svg width="546" height="206" viewBox="0 0 546 206" fill="none" xmlns="http://www.w3.org/2000/svg">
<path d="M72.7714 1.17143V5.74285C67.5905 5.89523 63.6286 6.50476 60.8857 7.57143C58.2952 8.48571 56.5429 10.3143 55.6286 13.0571C54.7143 15.6476 54.2571 19.7619 54.2571 25.4V141.514C54.2571 146.238 54.5619 149.743 55.1714 152.029C55.9333 154.314 57.3048 155.838 59.2857 156.6C61.4191 157.362 64.5429 157.743 68.6571 157.743H79.8571C85.0381 157.743 89.9143 156.524 94.4857 154.086C99.0572 151.648 103.171 148.219 106.829 143.8C110.486 139.229 113.533 133.819 115.971 127.571C118.41 121.324 120.238 114.39 121.457 106.771H126.714C126.257 111.952 126.029 118.657 126.029 126.886C126.029 130.39 126.105 135.495 126.257 142.2C126.41 148.905 126.867 155.838 127.629 163C119.857 162.695 111.095 162.543 101.343 162.543C91.5905 162.39 82.9048 162.314 75.2857 162.314C71.4762 162.314 66.6 162.314 60.6571 162.314C54.7143 162.314 48.3143 162.39 41.4571 162.543C34.6 162.543 27.6667 162.619 20.6571 162.771C13.6476 162.771 7.01905 162.848 0.771429 163V158.429C5.64762 158.124 9.30476 157.514 11.7429 156.6C14.181 155.686 15.781 153.857 16.5429 151.114C17.4571 148.371 17.9143 144.257 17.9143 138.771V25.4C17.9143 19.7619 17.4571 15.6476 16.5429 13.0571C15.781 10.3143 14.1048 8.48571 11.5143 7.57143C9.07619 6.50476 5.49524 5.89523 0.771429 5.74285V1.17143C4.58095 1.32381 9.68572 1.47619 16.0857 1.62857C22.6381 1.78095 29.5714 1.85713 36.8857 1.85713C43.5905 1.85713 50.1429 1.78095 56.5429 1.62857C63.0952 1.47619 68.5048 1.32381 72.7714 1.17143ZM182.561 205.971C173.113 205.971 164.656 205.133 157.189 203.457C149.875 201.933 144.085 199.495 139.818 196.143C135.704 192.943 133.646 188.981 133.646 184.257C133.646 179.533 135.78 175.267 140.046 171.457C144.313 167.8 150.637 164.905 159.018 162.771L161.075 166.429C158.18 168.714 156.046 171.152 154.675 173.743C153.456 176.486 152.846 179.305 152.846 182.2C152.846 188.6 155.742 193.476 161.532 196.829C167.475 200.333 175.475 202.086 185.532 202.086C192.389 202.086 198.485 201.171 203.818 199.343C209.304 197.514 213.57 194.771 216.618 191.114C219.818 187.457 221.418 182.962 221.418 177.629C221.418 173.057 219.742 169.171 216.389 165.971C213.037 162.924 206.332 161.4 196.275 161.4H182.104C175.856 161.4 170.37 160.714 165.646 159.343C161.075 157.971 157.494 155.838 154.904 152.943C152.313 149.895 151.018 146.086 151.018 141.514C151.018 135.114 153.532 129.476 158.561 124.6C163.589 119.724 171.056 115.152 180.961 110.886L183.246 112.714C180.351 114.543 177.608 116.524 175.018 118.657C172.58 120.638 171.361 123.229 171.361 126.429C171.361 131.305 174.408 133.743 180.504 133.743H205.418C213.799 133.743 221.265 134.733 227.818 136.714C234.523 138.695 239.78 141.971 243.589 146.543C247.551 150.962 249.532 156.752 249.532 163.914C249.532 171.381 247.094 178.314 242.218 184.714C237.494 191.114 230.18 196.219 220.275 200.029C210.37 203.99 197.799 205.971 182.561 205.971ZM184.846 114.314C176.161 114.314 168.389 113.019 161.532 110.429C154.675 107.838 149.265 103.876 145.304 98.5429C141.342 93.2095 139.361 86.3524 139.361 77.9714C139.361 69.5905 141.342 62.7333 145.304 57.4C149.265 51.9143 154.675 47.9524 161.532 45.5143C168.389 42.9238 176.161 41.6286 184.846 41.6286C193.532 41.6286 201.304 42.9238 208.161 45.5143C215.018 47.9524 220.427 51.9143 224.389 57.4C228.351 62.7333 230.332 69.5905 230.332 77.9714C230.332 86.3524 228.351 93.2095 224.389 98.5429C220.427 103.876 215.018 107.838 208.161 110.429C201.304 113.019 193.532 114.314 184.846 114.314ZM184.846 110.2C188.961 110.2 192.161 107.914 194.446 103.343C196.732 98.619 197.875 90.1619 197.875 77.9714C197.875 65.7809 196.732 57.4 194.446 52.8286C192.161 48.1048 188.961 45.7429 184.846 45.7429C180.885 45.7429 177.685 48.1048 175.246 52.8286C172.961 57.4 171.818 65.7809 171.818 77.9714C171.818 90.1619 172.961 98.619 175.246 103.343C177.685 107.914 180.885 110.2 184.846 110.2ZM220.504 61.2857L215.932 59.6857C218.218 53.7429 221.875 48.7905 226.904 44.8286C232.085 40.8667 237.646 38.8857 243.589 38.8857C248.465 38.8857 252.123 40.2571 254.561 43C257.151 45.5905 258.446 49.019 258.446 53.2857C258.446 57.8571 257.227 61.2857 254.789 63.5714C252.351 65.7048 249.608 66.7714 246.561 66.7714C243.97 66.7714 241.532 65.8571 239.246 64.0286C237.113 62.2 235.894 59.4571 235.589 55.8C235.285 51.9905 236.58 47.1143 239.475 41.1714L241.075 42.5429C235.285 44.6762 230.942 47.1905 228.046 50.0857C225.151 52.8286 222.637 56.5619 220.504 61.2857ZM410.918 1.17143V5.74285C407.565 6.9619 403.985 9.62857 400.175 13.7428C396.518 17.8571 393.089 24.2571 389.889 32.9429L341.661 163.457C340.442 163.305 339.146 163.229 337.775 163.229C336.404 163.229 335.032 163.229 333.661 163.229C332.442 163.229 331.146 163.229 329.775 163.229C328.404 163.229 327.108 163.305 325.889 163.457L267.604 20.3714C265.47 14.8857 263.108 11.1524 260.518 9.17142C257.927 7.03809 255.489 5.89523 253.204 5.74285V1.17143C257.775 1.32381 263.108 1.47619 269.204 1.62857C275.451 1.78095 281.699 1.85713 287.946 1.85713C294.956 1.85713 301.508 1.78095 307.604 1.62857C313.851 1.47619 318.88 1.32381 322.689 1.17143V5.74285C317.813 5.89523 314.004 6.50476 311.261 7.57143C308.518 8.48571 306.994 10.3143 306.689 13.0571C306.385 15.6476 307.299 19.6095 309.432 24.9429L351.032 130.771L346.232 136.486L377.775 51.4571C381.889 40.0286 384.023 31.0381 384.175 24.4857C384.327 17.9333 382.727 13.2095 379.375 10.3143C376.023 7.41904 371.223 5.89523 364.975 5.74285V1.17143C370.156 1.32381 375.032 1.47619 379.604 1.62857C384.175 1.78095 388.823 1.85713 393.546 1.85713C396.899 1.85713 400.023 1.78095 402.918 1.62857C405.965 1.47619 408.632 1.32381 410.918 1.17143ZM475.775 0.714279L531.318 143.8C533.451 149.286 535.813 153.095 538.404 155.229C541.146 157.21 543.585 158.276 545.718 158.429V163C541.146 162.695 535.737 162.543 529.489 162.543C523.394 162.39 517.223 162.314 510.975 162.314C503.965 162.314 497.337 162.39 491.089 162.543C484.842 162.543 479.889 162.695 476.232 163V158.429C484.004 158.124 488.88 156.829 490.861 154.543C492.994 152.105 492.537 147 489.489 139.229L450.632 32.9429L454.746 27L420.004 117.514C416.651 125.895 414.594 132.752 413.832 138.086C413.223 143.419 413.604 147.533 414.975 150.429C416.499 153.324 418.861 155.381 422.061 156.6C425.413 157.667 429.375 158.276 433.946 158.429V163C428.918 162.695 424.118 162.543 419.546 162.543C414.975 162.39 410.327 162.314 405.604 162.314C402.251 162.314 399.051 162.39 396.004 162.543C393.108 162.543 390.518 162.695 388.232 163V158.429C391.432 157.819 394.708 155.762 398.061 152.257C401.413 148.752 404.689 142.81 407.889 134.429L460.004 0.714279C462.442 0.866658 465.032 0.942847 467.775 0.942847C470.67 0.942847 473.337 0.866658 475.775 0.714279ZM491.775 97.1714V101.743H423.661L425.946 97.1714H491.775Z" fill="white"/>
</svg>
